<?xml version="1.0" encoding="utf-8"?>
<!-- Generator: Adobe Illustrator 23.0.6, SVG Export Plug-In . SVG Version: 6.00 Build 0)  -->
<svg version="1.1" id="Layer_1" xmlns="http://www.w3.org/2000/svg" xmlns:xlink="http://www.w3.org/1999/xlink" x="0px" y="0px"
	 viewBox="0 0 254 150" style="enable-background:new 0 0 254 150;" xml:space="preserve">
<g>
	<ellipse cx="101.34" cy="68.92" rx="15.86" ry="18.6"/>
</g>
<g>
	<path d="M243.59,49.45c-17.93-38.96-57.21-59.16-87.73-45.11c-14.49,6.67-24.39,19.86-28.88,36.05
		c-4.47-16.28-14.39-29.56-28.94-36.26c-30.52-14.05-69.8,6.15-87.73,45.11c-17.93,38.96-7.73,81.94,22.79,95.98
		c30.52,14.05,69.8-6.15,87.73-45.11c2.64-5.73,4.65-11.54,6.09-17.34c1.45,5.87,3.48,11.75,6.15,17.55
		c17.93,38.96,57.21,59.16,87.73,45.11C251.32,131.39,261.53,88.42,243.59,49.45z M115.86,97.83
		c-16.32,35.46-52.07,53.84-79.84,41.06C8.24,126.1-1.04,86.99,15.28,51.53C31.6,16.07,67.35-2.31,95.12,10.47
		C122.9,23.26,132.18,62.37,115.86,97.83z M217.88,139.09c-27.78,12.78-63.52-5.6-79.84-41.06s-7.03-74.57,20.74-87.35
		c27.78-12.78,63.52,5.6,79.84,41.06C254.95,87.2,245.66,126.31,217.88,139.09z"/>
	<g>
		<ellipse cx="152.56" cy="69.13" rx="15.86" ry="18.6"/>
	</g>
</g>
</svg>
