<?xml version="1.0" encoding="utf-8"?>
<!-- Generator: Adobe Illustrator 23.0.6, SVG Export Plug-In . SVG Version: 6.00 Build 0)  -->
<svg version="1.1" id="Layer_1" xmlns="http://www.w3.org/2000/svg" xmlns:xlink="http://www.w3.org/1999/xlink" x="0px" y="0px"
	 viewBox="0 0 360 141" style="enable-background:new 0 0 360 141;" xml:space="preserve">
<style type="text/css">
	.st0{fill:#93A4B2;}
	.st1{fill:#060606;}
	.st2{fill:#FEFBB8;}
	.st3{fill:#020001;}
</style>
<g>
	<g>
		<path class="st0" d="M358.19,70.62c0,38.41-28.55,69.55-63.78,69.55H64.59c-35.22,0-63.78-31.14-63.78-69.55l0,0
			c0-38.41,28.55-69.55,63.78-69.55h229.82C329.63,1.07,358.19,32.21,358.19,70.62L358.19,70.62z"/>
	</g>
	<g>
		<path d="M294.41,141H64.59C28.97,141,0,109.43,0,70.62S28.97,0.23,64.59,0.23h229.82c35.61,0,64.59,31.57,64.59,70.38
			S330.02,141,294.41,141z M64.59,1.91c-34.72,0-62.97,30.82-62.97,68.71s28.25,68.71,62.97,68.71h229.82
			c34.72,0,62.97-30.82,62.97-68.71S329.13,1.91,294.41,1.91H64.59z"/>
	</g>
</g>
<g>
	<path class="st1" d="M347.9,70.45c0,33.63-26.91,60.89-60.11,60.89H71.18c-33.2,0-60.11-27.26-60.11-60.89l0,0
		c0-33.63,26.91-60.89,60.11-60.89h216.61C320.99,9.56,347.9,36.82,347.9,70.45L347.9,70.45z"/>
</g>
<g>
	<path class="st2" d="M169.85,70.89c0-24.03-11.6-45.16-29.12-57.36H71.02C53.49,25.73,41.9,46.86,41.9,70.89
		c0,24.21,11.76,45.46,29.5,57.62h68.95C158.09,116.35,169.85,95.09,169.85,70.89z"/>
</g>
<g>
	<path class="st2" d="M316.38,71.74c0-24.6-12.14-46.16-30.36-58.21h-67.23c-18.22,12.06-30.36,33.62-30.36,58.21
		c0,23.64,11.21,44.48,28.26,56.77h71.44C305.16,116.22,316.38,95.38,316.38,71.74z"/>
</g>
<g>
	<g>
		<rect x="97.07" y="61.48" class="st3" width="18.74" height="18.25"/>
	</g>
	<g>
		<rect x="243.03" y="61.48" class="st3" width="18.74" height="18.25"/>
	</g>
</g>
</svg>
