<?xml version="1.0" encoding="utf-8"?>
<!-- Generator: Adobe Illustrator 23.0.6, SVG Export Plug-In . SVG Version: 6.00 Build 0)  -->
<svg version="1.1" id="Layer_1" xmlns="http://www.w3.org/2000/svg" xmlns:xlink="http://www.w3.org/1999/xlink" x="0px" y="0px"
	 viewBox="0 0 349 63" style="enable-background:new 0 0 349 63;" xml:space="preserve">
<style type="text/css">
	.st0{fill:#020201;}
	.st1{fill:#ACAFB9;}
	.st2{fill:#E3E6EA;}
	.st3{fill:#A83938;}
	.st4{fill:#711F20;}
	.st5{fill:#000200;}
</style>
<g>
	<g>
		<path class="st0" d="M-0.26,0.53c0,0,90.27-10.54,119.76,62.45c0,0-32.39-2.45-49.47-2.33C45.38,60.82,14.76,57.71-0.26,0.53z"/>
	</g>
	<g>
		<g>
			<path class="st1" d="M17.45,15.4c0,0,5.86-0.64,14.95,0.2c0.95-2.71,2.33-5.21,4.04-7.44C19.1,5.42,6.2,6.59,6.2,6.59
				c4.11,12.83,9.1,22.56,14.74,29.89c-0.65-2.3-1.43-5.5-2.12-9.48C17.81,21.05,17.45,15.4,17.45,15.4z"/>
		</g>
		<g>
			<g>
				<path class="st2" d="M89.62,39.26c-2.3-1.96-4.64-3.75-6.98-5.41C78.83,43.98,69.07,51.2,57.61,51.2
					c-14.76,0-26.72-11.97-26.72-26.72c0-3.11,0.54-6.09,1.51-8.87c-9.09-0.84-14.95-0.2-14.95-0.2s0.37,5.65,1.38,11.6
					c0.68,3.98,1.46,7.18,2.12,9.48c11.93,15.51,26.82,20.28,42.67,20.76c19.78,0.6,37.06,1.4,45.15,1.8
					C106.8,56.26,101.31,49.22,89.62,39.26z"/>
			</g>
		</g>
		<g>
			<path class="st1" d="M84.27,26.21c-0.17,2.67-0.73,5.24-1.64,7.65c2.35,1.66,4.68,3.45,6.98,5.41
				c11.69,9.96,17.18,17,19.14,19.79c3.11,0.15,4.86,0.25,4.86,0.25C106,44.58,95.61,33.92,84.27,26.21z"/>
		</g>
	</g>
	<g>
		<g>
			<path class="st3" d="M30.88,24.47c0,14.76,11.97,26.72,26.72,26.72c11.46,0,21.23-7.21,25.03-17.34
				C64.32,20.9,45.17,16.78,32.4,15.6C31.42,18.38,30.88,21.36,30.88,24.47z"/>
		</g>
		<g>
			<path d="M57.61,51.72c-15.02,0-27.24-12.22-27.24-27.24c0-3.09,0.52-6.13,1.54-9.04l0.13-0.38l0.4,0.04
				c12.88,1.19,32.1,5.34,50.49,18.35l0.33,0.23l-0.14,0.37C79.15,44.61,68.9,51.72,57.61,51.72z M32.75,16.16
				c-0.9,2.68-1.35,5.48-1.35,8.31c0,14.45,11.76,26.21,26.21,26.21c10.73,0,20.48-6.67,24.4-16.63
				C64.09,21.49,45.43,17.38,32.75,16.16z"/>
		</g>
	</g>
	<g>
		<g>
			<path class="st4" d="M50.44,11.12c-4.86-1.29-9.58-2.25-14-2.95c-1.72,2.23-3.09,4.73-4.04,7.44c3.51,0.32,7.51,0.88,11.83,1.77
				C45.63,14.72,47.8,12.54,50.44,11.12z"/>
		</g>
		<g>
			<path d="M44.5,17.96l-0.38-0.08c-3.95-0.81-7.91-1.41-11.77-1.76l-0.66-0.06l0.22-0.63c0.96-2.73,2.35-5.28,4.12-7.58l0.19-0.24
				l0.3,0.05c4.77,0.75,9.5,1.75,14.05,2.96l1.27,0.34l-1.15,0.62c-2.56,1.38-4.64,3.47-6.01,6.04L44.5,17.96z M33.11,15.15
				c3.56,0.35,7.2,0.9,10.84,1.64c1.26-2.23,3.02-4.1,5.16-5.48c-4.05-1.04-8.23-1.9-12.44-2.58C35.18,10.7,33.99,12.85,33.11,15.15
				z"/>
		</g>
	</g>
	<g>
		<g>
			<path class="st4" d="M84.27,26.21c-4.09-2.78-8.31-5.18-12.56-7.24c0.67,1.71,1.05,3.56,1.05,5.51c0,1.05-0.11,2.08-0.31,3.08
				c3.39,1.83,6.8,3.91,10.19,6.3C83.54,31.45,84.1,28.88,84.27,26.21z"/>
		</g>
		<g>
			<path d="M82.88,34.67l-0.55-0.39c-3.21-2.27-6.62-4.38-10.13-6.27l-0.34-0.18l0.08-0.38c0.2-0.98,0.3-1.98,0.3-2.97
				c0-1.81-0.34-3.6-1.01-5.32l-0.48-1.24l1.19,0.58c4.47,2.17,8.71,4.62,12.62,7.28l0.24,0.17l-0.02,0.3
				c-0.17,2.68-0.73,5.3-1.67,7.79L82.88,34.67z M73.03,27.27c3.23,1.75,6.37,3.69,9.35,5.77c0.73-2.11,1.19-4.32,1.36-6.57
				c-3.47-2.34-7.2-4.52-11.11-6.48c0.44,1.46,0.66,2.96,0.66,4.48C73.28,25.41,73.2,26.35,73.03,27.27z"/>
		</g>
	</g>
	<g>
		<path d="M57.61,40.14c-8.64,0-15.67-7.03-15.67-15.67c0-2.55,0.63-5.09,1.83-7.34l0.18-0.34l0.38,0.08
			c10.06,2.07,19.61,5.51,28.37,10.23l0.34,0.18l-0.08,0.38C71.46,34.89,65.01,40.14,57.61,40.14z M44.5,17.96
			c-1,2.02-1.53,4.26-1.53,6.51c0,8.07,6.57,14.63,14.63,14.63c6.78,0,12.71-4.72,14.25-11.28C63.39,23.31,54.2,19.99,44.5,17.96z"
			/>
	</g>
	<g>
		<g>
			<path class="st4" d="M71.71,18.96c-7.12-3.47-14.35-6-21.27-7.85c-2.64,1.42-4.81,3.6-6.22,6.26
				c8.51,1.75,18.29,4.83,28.22,10.18c0.21-0.99,0.31-2.02,0.31-3.08C72.76,22.53,72.38,20.67,71.71,18.96z"/>
		</g>
		<g>
			<path d="M72.81,28.34l-0.61-0.33c-8.67-4.67-18.12-8.07-28.08-10.12l-0.68-0.14l0.33-0.61c1.46-2.76,3.69-4.99,6.43-6.47
				l0.18-0.1l0.2,0.05c7.57,2.02,14.76,4.67,21.36,7.88l0.18,0.09l0.07,0.19c0.72,1.84,1.08,3.75,1.08,5.7
				c0,1.07-0.11,2.14-0.32,3.18L72.81,28.34z M45.02,17.01c9.57,2.04,18.66,5.31,27.04,9.75c0.12-0.76,0.18-1.52,0.18-2.29
				c0-1.75-0.32-3.47-0.94-5.13c-6.43-3.11-13.43-5.69-20.79-7.67C48.23,12.94,46.35,14.77,45.02,17.01z"/>
		</g>
	</g>
	<g>
		<circle class="st5" cx="57.61" cy="24.47" r="3.91"/>
	</g>
	<g>
		<path class="st5" d="M66.78,34.53c-1.79,0-3.24,1.45-3.24,3.24c0,0.93,0.4,1.77,1.03,2.36c-0.47,0.84-1.56,2.5-3.05,3.13
			c0,0,2.27,0.34,4.41-2.37c0.27,0.07,0.55,0.13,0.85,0.13c1.79,0,3.24-1.45,3.24-3.24C70.02,35.99,68.57,34.53,66.78,34.53z"/>
	</g>
	<g>
		<path class="st5" d="M47.58,31.65c0.01-1.79-1.44-3.24-3.23-3.25c-0.93,0-1.77,0.39-2.36,1.02c-0.84-0.48-2.49-1.56-3.12-3.06
			c0,0-0.35,2.27,2.36,4.42c-0.08,0.27-0.13,0.55-0.13,0.85c-0.01,1.79,1.44,3.24,3.23,3.25C46.12,34.88,47.58,33.44,47.58,31.65z"
			/>
	</g>
</g>
<g>
	<g>
		<g>
			<path class="st0" d="M348.91,0.53c0,0-90.27-10.54-119.76,62.45c0,0,32.39-2.45,49.47-2.33
				C303.27,60.82,333.89,57.71,348.91,0.53z"/>
		</g>
		<g>
			<g>
				<path class="st1" d="M331.21,15.4c0,0-5.86-0.64-14.95,0.2c-0.95-2.71-2.33-5.21-4.04-7.44c17.34-2.74,30.24-1.57,30.24-1.57
					c-4.11,12.83-9.1,22.56-14.74,29.89c0.65-2.3,1.43-5.5,2.12-9.48C330.84,21.05,331.21,15.4,331.21,15.4z"/>
			</g>
			<g>
				<g>
					<path class="st2" d="M259.03,39.26c2.3-1.96,4.64-3.75,6.98-5.41c3.8,10.13,13.57,17.34,25.03,17.34
						c14.76,0,26.72-11.97,26.72-26.72c0-3.11-0.54-6.09-1.51-8.87c9.09-0.84,14.95-0.2,14.95-0.2s-0.37,5.65-1.38,11.6
						c-0.68,3.98-1.46,7.18-2.12,9.48c-11.93,15.51-26.82,20.28-42.67,20.76c-19.78,0.6-37.06,1.4-45.15,1.8
						C241.85,56.26,247.34,49.22,259.03,39.26z"/>
				</g>
			</g>
			<g>
				<path class="st1" d="M264.38,26.21c0.17,2.67,0.73,5.24,1.64,7.65c-2.35,1.66-4.68,3.45-6.98,5.41
					c-11.69,9.96-17.18,17-19.14,19.79c-3.11,0.15-4.86,0.25-4.86,0.25C242.65,44.58,253.04,33.92,264.38,26.21z"/>
			</g>
		</g>
		<g>
			<g>
				<path class="st3" d="M291.04,51.2c14.76,0,26.72-11.97,26.72-26.72c0-3.11-0.54-6.09-1.51-8.87c-0.03-0.08-0.07-0.16-0.1-0.25
					c-22.15,1.46-40.78,12.17-50.1,18.58C269.87,44.02,279.62,51.2,291.04,51.2z"/>
			</g>
			<g>
				<path class="st4" d="M298.21,11.12c-6.92,1.84-14.15,4.38-21.27,7.85c-4.25,2.07-8.47,4.46-12.56,7.24
					c0.17,2.67,0.73,5.24,1.64,7.65c0.01,0.03,0.02,0.05,0.03,0.08c9.32-6.41,27.95-17.12,50.1-18.58
					c-0.95-2.61-2.28-5.03-3.95-7.19C307.79,8.86,303.07,9.82,298.21,11.12z"/>
			</g>
			<g>
				<path class="st3" d="M316.25,15.6c-0.03-0.08-0.07-0.16-0.1-0.25c-4.11,0.27-8.09,0.86-11.92,1.68c0.06,0.11,0.13,0.22,0.2,0.34
					c1.13,2.12,1.77,4.53,1.77,7.1c0,8.37-6.78,15.15-15.15,15.15c-7.27,0-13.33-5.12-14.81-11.94c-4.06,2.22-7.52,4.41-10.19,6.25
					c3.82,10.09,13.57,17.26,24.99,17.26c14.76,0,26.72-11.97,26.72-26.72C317.77,21.36,317.23,18.38,316.25,15.6z"/>
			</g>
			<g>
				<g>
					<path d="M291.04,51.72c-11.29,0-21.55-7.1-25.51-17.68c-0.93-2.49-1.5-5.11-1.67-7.79l-0.02-0.3l0.25-0.17
						c3.91-2.66,8.15-5.11,12.62-7.28c6.6-3.21,13.79-5.86,21.36-7.88c4.55-1.21,9.28-2.21,14.05-2.96l0.3-0.05l0.19,0.24
						c1.78,2.3,3.16,4.85,4.12,7.58c1.02,2.91,1.54,5.95,1.54,9.04C318.29,39.49,306.07,51.72,291.04,51.72z M264.92,26.47
						c0.19,2.48,0.72,4.9,1.58,7.2c3.82,10.17,13.68,17,24.54,17c14.45,0,26.21-11.76,26.21-26.21c0-2.97-0.5-5.9-1.48-8.7
						c-0.89-2.53-2.16-4.9-3.78-7.05c-4.63,0.74-9.22,1.72-13.64,2.89c-7.51,2-14.64,4.63-21.18,7.81
						C272.83,21.54,268.71,23.91,264.92,26.47z"/>
				</g>
			</g>
			<g>
				<path class="st3" d="M291.04,39.63c8.37,0,15.15-6.78,15.15-15.15c0-2.57-0.64-4.98-1.77-7.1c-0.06-0.12-0.13-0.22-0.2-0.34
					c-10.9,2.34-20.51,6.55-27.99,10.65C277.71,34.51,283.78,39.63,291.04,39.63z"/>
			</g>
			<g>
				<path class="st5" d="M281.87,34.53c1.79,0,3.24,1.45,3.24,3.24c0,0.93-0.4,1.77-1.03,2.36c0.47,0.84,1.56,2.5,3.05,3.13
					c0,0-2.27,0.34-4.41-2.37c-0.27,0.07-0.55,0.13-0.85,0.13c-1.79,0-3.24-1.45-3.24-3.24C278.63,35.99,280.08,34.53,281.87,34.53z
					"/>
			</g>
			<g>
				<path class="st5" d="M301.07,31.65c-0.01-1.79,1.44-3.24,3.23-3.25c0.93,0,1.77,0.39,2.36,1.02c0.84-0.48,2.49-1.56,3.12-3.06
					c0,0,0.35,2.27-2.36,4.42c0.08,0.27,0.13,0.55,0.13,0.85c0.01,1.79-1.44,3.24-3.23,3.25C302.53,34.88,301.07,33.44,301.07,31.65
					z"/>
			</g>
			<g>
				<circle class="st5" cx="291.04" cy="24.47" r="3.91"/>
			</g>
			<g>
				<path d="M291.04,40.14c-7.4,0-13.85-5.25-15.35-12.49c-0.22-1.05-0.33-2.12-0.33-3.18c0-1.94,0.36-3.86,1.08-5.7l0.07-0.19
					l0.18-0.09c6.6-3.21,13.79-5.86,21.36-7.88l0.2-0.05l0.18,0.1c2.74,1.48,4.97,3.71,6.43,6.47c1.2,2.25,1.83,4.79,1.83,7.34
					C306.72,33.11,299.68,40.14,291.04,40.14z M277.35,19.34c-0.62,1.66-0.94,3.39-0.94,5.13c0,1,0.1,2,0.3,2.97
					c1.4,6.76,7.42,11.66,14.33,11.66c8.07,0,14.63-6.57,14.63-14.63c0-2.38-0.59-4.75-1.71-6.85c-1.34-2.51-3.35-4.57-5.83-5.94
					C290.78,13.65,283.78,16.23,277.35,19.34z"/>
			</g>
		</g>
	</g>
	<g>
		<g>
			<path class="st0" d="M0.1,0.53c0,0,90.27-10.54,119.76,62.45c0,0-32.39-2.45-49.47-2.33C45.74,60.82,15.12,57.71,0.1,0.53z"/>
		</g>
		<g>
			<g>
				<path class="st1" d="M17.8,15.4c0,0,5.86-0.64,14.95,0.2c0.95-2.71,2.33-5.21,4.04-7.44C19.46,5.42,6.56,6.59,6.56,6.59
					c4.11,12.83,9.1,22.56,14.74,29.89c-0.65-2.3-1.43-5.5-2.12-9.48C18.17,21.05,17.8,15.4,17.8,15.4z"/>
			</g>
			<g>
				<g>
					<path class="st2" d="M89.98,39.26c-2.3-1.96-4.64-3.75-6.98-5.41C79.19,43.98,69.42,51.2,57.97,51.2
						c-14.76,0-26.72-11.97-26.72-26.72c0-3.11,0.54-6.09,1.51-8.87c-9.09-0.84-14.95-0.2-14.95-0.2s0.37,5.65,1.38,11.6
						c0.68,3.98,1.46,7.18,2.12,9.48c11.93,15.51,26.82,20.28,42.67,20.76c19.78,0.6,37.06,1.4,45.15,1.8
						C107.16,56.26,101.67,49.22,89.98,39.26z"/>
				</g>
			</g>
			<g>
				<path class="st1" d="M84.63,26.21c-0.17,2.67-0.73,5.24-1.64,7.65c2.35,1.66,4.68,3.45,6.98,5.41
					c11.69,9.96,17.18,17,19.14,19.79c3.11,0.15,4.86,0.25,4.86,0.25C106.36,44.58,95.96,33.92,84.63,26.21z"/>
			</g>
		</g>
		<g>
			<g>
				<path class="st3" d="M57.97,51.2c-14.76,0-26.72-11.97-26.72-26.72c0-3.11,0.54-6.09,1.51-8.87c0.03-0.08,0.07-0.16,0.1-0.25
					C55,16.81,73.64,27.52,82.96,33.94C79.14,44.02,69.39,51.2,57.97,51.2z"/>
			</g>
			<g>
				<path class="st4" d="M50.8,11.12c6.92,1.84,14.15,4.38,21.27,7.85c4.25,2.07,8.47,4.46,12.56,7.24
					c-0.17,2.67-0.73,5.24-1.64,7.65c-0.01,0.03-0.02,0.05-0.03,0.08C73.64,27.52,55,16.81,32.85,15.35
					c0.95-2.61,2.28-5.03,3.95-7.19C41.22,8.86,45.94,9.82,50.8,11.12z"/>
			</g>
			<g>
				<path class="st3" d="M32.76,15.6c0.03-0.08,0.07-0.16,0.1-0.25c4.11,0.27,8.09,0.86,11.92,1.68c-0.06,0.11-0.13,0.22-0.2,0.34
					c-1.13,2.12-1.77,4.53-1.77,7.1c0,8.37,6.78,15.15,15.15,15.15c7.27,0,13.33-5.12,14.81-11.94c4.06,2.22,7.52,4.41,10.19,6.25
					C79.14,44.02,69.39,51.2,57.97,51.2c-14.76,0-26.72-11.97-26.72-26.72C31.24,21.36,31.78,18.38,32.76,15.6z"/>
			</g>
			<g>
				<g>
					<path d="M57.97,51.72c-15.02,0-27.24-12.22-27.24-27.24c0-3.09,0.52-6.13,1.54-9.04c0.96-2.73,2.35-5.28,4.12-7.58l0.19-0.24
						l0.3,0.05c4.77,0.75,9.5,1.75,14.05,2.96c7.57,2.02,14.76,4.67,21.37,7.88c4.47,2.17,8.71,4.62,12.62,7.28l0.24,0.17l-0.02,0.3
						c-0.17,2.68-0.73,5.3-1.67,7.79C79.51,44.61,69.26,51.72,57.97,51.72z M37.02,8.73c-1.62,2.15-2.89,4.52-3.78,7.05
						c-0.99,2.8-1.48,5.72-1.48,8.7c0,14.45,11.76,26.21,26.21,26.21c10.86,0,20.73-6.83,24.54-17.01c0.86-2.3,1.4-4.72,1.58-7.2
						c-3.8-2.57-7.92-4.93-12.24-7.04c-6.54-3.18-13.67-5.81-21.18-7.81C46.25,10.44,41.66,9.47,37.02,8.73z"/>
				</g>
			</g>
			<g>
				<path class="st3" d="M57.97,39.63c-8.37,0-15.15-6.78-15.15-15.15c0-2.57,0.64-4.98,1.77-7.1c0.06-0.12,0.13-0.22,0.2-0.34
					c10.9,2.34,20.51,6.55,27.99,10.65C71.3,34.51,65.23,39.63,57.97,39.63z"/>
			</g>
			<g>
				<path class="st5" d="M67.14,34.53c-1.79,0-3.24,1.45-3.24,3.24c0,0.93,0.4,1.77,1.03,2.36c-0.47,0.84-1.56,2.5-3.05,3.13
					c0,0,2.27,0.34,4.41-2.37c0.27,0.07,0.55,0.13,0.85,0.13c1.79,0,3.24-1.45,3.24-3.24C70.38,35.99,68.93,34.53,67.14,34.53z"/>
			</g>
			<g>
				<path class="st5" d="M47.94,31.65c0.01-1.79-1.44-3.24-3.23-3.25c-0.93,0-1.77,0.39-2.36,1.02c-0.84-0.48-2.49-1.56-3.12-3.06
					c0,0-0.35,2.27,2.36,4.42c-0.08,0.27-0.13,0.55-0.13,0.85c-0.01,1.79,1.44,3.24,3.23,3.25C46.48,34.88,47.93,33.44,47.94,31.65z
					"/>
			</g>
			<g>
				<circle class="st5" cx="57.97" cy="24.47" r="3.91"/>
			</g>
			<g>
				<path d="M57.97,40.14c-8.64,0-15.67-7.03-15.67-15.67c0-2.55,0.63-5.09,1.83-7.34c1.46-2.76,3.69-4.99,6.43-6.47l0.18-0.1
					l0.2,0.05c7.57,2.02,14.76,4.67,21.37,7.88l0.18,0.09l0.07,0.19c0.72,1.84,1.08,3.75,1.08,5.7c0,1.07-0.11,2.14-0.32,3.18
					C71.82,34.89,65.37,40.14,57.97,40.14z M50.87,11.67c-2.48,1.38-4.49,3.43-5.83,5.94c-1.12,2.1-1.71,4.47-1.71,6.85
					c0,8.07,6.57,14.63,14.63,14.63c6.91,0,12.94-4.9,14.33-11.66c0.2-0.98,0.3-1.98,0.3-2.97c0-1.75-0.32-3.47-0.94-5.13
					C65.23,16.23,58.23,13.65,50.87,11.67z"/>
			</g>
		</g>
	</g>
</g>
</svg>
